<?xml version="1.0" encoding="utf-8"?>
<!-- Generator: Adobe Illustrator 26.0.1, SVG Export Plug-In . SVG Version: 6.00 Build 0)  -->
<svg version="1.1" id="Layer_1" xmlns="http://www.w3.org/2000/svg" xmlns:xlink="http://www.w3.org/1999/xlink" x="0px" y="0px"
	 viewBox="0 0 2749.7 538.2" style="enable-background:new 0 0 2749.7 538.2;" xml:space="preserve">
<style type="text/css">
	.st0{fill:#0092FF;}
</style>
<polygon points="1589.5,315.2 1435.7,121.4 1435.2,120.9 1375.3,120.9 1375.3,417.6 1435.6,417.6 1435.6,223.3 1589.4,417.1 
	1589.9,417.6 1649.8,417.6 1649.8,120.9 1589.5,120.9 "/>
<rect x="120.6" y="357.1" class="st0" width="60.3" height="60.3"/>
<path d="M250.5,120.8H120.7v176.3h60.1v-116h68c62.4,0,102.8,34.9,102.8,88.2s-40.4,88.2-102.8,88.2h-7.7v60.2h9.4
	c96.3,0,162-59.4,162-148.4S346.7,120.8,250.5,120.8z"/>
<path d="M2587,163.3c-27.1-27-64.6-41.8-105.7-41.8s-78.7,14.9-105.8,42s-42,64.7-42,105.8s14.9,78.7,42,105.8s64.6,42,105.8,42
	s78.7-14.9,105.7-41.9s42-64.7,42-106S2614.1,190.4,2587,163.3z M2418.6,203.4c16-16.7,38.3-25.9,62.7-25.9s46.6,9.2,62.7,25.9
	s25,40.1,25,65.8s-8.9,49.1-25,65.8s-38.3,25.9-62.7,25.9s-46.7-9.2-62.7-25.9s-25-40.1-25-65.8S2402.5,220.2,2418.6,203.4z"/>
<path d="M953.8,126.9c2.3,0.6,4.5,1.3,6.7,2C958.3,128.1,956.1,127.5,953.8,126.9z M942.3,124.2c-2.2-0.4-4.5-0.8-6.8-1.1
	C937.9,123.5,940.1,123.8,942.3,124.2z"/>
<path d="M1021.8,368.7l1.1,1.2c-1.7,1.9-3.5,3.8-5.3,5.6c-24,24-56.5,38.5-92.3,41.4c-4.4,0.3-8.9,0.5-13.4,0.5
	c-4.5,0-9-0.2-13.3-0.5c-4.5-0.4-8.9-0.9-13.3-1.6c-2.2-0.4-4.3-0.8-6.5-1.2l0,0c-2.1-0.4-4.3-0.9-6.4-1.5l0,0l-2.4-0.6
	c-3.1-0.9-6.3-1.8-9.3-2.8l-2.3-0.8c-1.8-0.7-3.7-1.4-5.5-2.1c-1.2-0.5-2.4-1-3.6-1.5l0,0c-1.2-0.5-2.4-1.1-3.5-1.6l0,0
	c-14.7-6.9-28.1-16.3-39.5-27.7c-27.1-27.1-42-64.8-42-105.9s15-78.8,42-105.9c15.8-15.7,35-27.4,56.2-34.3l2.1-0.7l0,0
	c2.5-0.8,5-1.5,7.5-2.1c1.7-0.4,3.4-0.8,5.1-1.2l0,0c5.5-1.2,11.1-2.1,16.7-2.8c2.3-0.2,4.5-0.5,6.8-0.6c3.8-0.3,7.6-0.4,11.5-0.4
	h2.9h1.6c0.9,0,1.7,0,2.6,0.1c0.6,0,1.3,0,1.9,0.1l2.1,0.1h0.4c2.1,0.2,4.2,0.3,6.3,0.6c1.1,0.1,2.1,0.2,3.2,0.4l2.7,0.4
	c2.3,0.3,4.5,0.7,6.8,1.1c1.6,0.3,3.1,0.6,4.6,1s3.1,0.7,4.6,1.1l2.3,0.6c2.3,0.6,4.5,1.3,6.7,2c21.5,6.8,41,18.6,57,34.5
	c2,2,3.9,4.1,5.8,6.2L987,205.1l-0.6,0.5L981,211c-2-2.6-4.1-5.1-6.4-7.5c-16.1-16.7-38.3-25.9-62.7-25.9
	c-22.6,0-43.4,7.9-59.1,22.3l-0.5,0.5c-1,1-2.1,2-3.1,3c-16.1,16.8-25,40.2-25,65.9s8.9,49.2,25,65.9c0.9,0.9,1.8,1.9,2.8,2.8
	c15.8,15,36.9,23.1,59.9,23.1c24.4,0,46.6-9.1,62.7-25.9c2.2-2.3,4.3-4.7,6.2-7.3l31.5,31.2l0.5,0.6L1021.8,368.7z"/>
<path d="M806.1,375c11.5,11.5,24.9,20.8,39.5,27.7C830.9,395.9,817.5,386.5,806.1,375c-26.8-26.7-41.6-63.6-42.1-103.9
	c0-0.5,0-0.9,0-1.4c0-0.6,0-1.3,0-1.9c0.3-40.6,15.3-77.6,42-104.4c15.8-15.7,35-27.4,56.2-34.3c-21.1,6.9-40.4,18.6-56.2,34.3
	c-27.1,27.1-42,64.7-42,105.8S779,347.9,806.1,375z"/>
<path d="M860.6,408.8c3.1,1,6.2,2,9.3,2.8C866.8,410.8,863.7,409.8,860.6,408.8z"/>
<path d="M864.3,128.5c2.5-0.8,5-1.5,7.5-2.1C869.3,127.1,866.8,127.8,864.3,128.5z"/>
<path d="M872.4,412.2c2.1,0.5,4.2,1,6.4,1.5C876.6,413.2,874.5,412.7,872.4,412.2z"/>
<path d="M885.2,414.9c-2.2-0.4-4.3-0.8-6.5-1.2C880.9,414.1,883.1,414.5,885.2,414.9z"/>
<polygon points="1710.1,180.9 1810.4,180.9 1810.4,416.9 1870.7,416.9 1870.7,180.9 1971,180.9 1971,120.6 1710.1,120.6 "/>
<path d="M2273.1,226.9c0-61.2-49.3-106-114.6-106h-127.2v296.8h60.3V332h45.9c3.6,0,7.4,0,11.1-0.3l57.7,86h66.8l-64.2-97.3
	C2250.3,304.1,2273.1,269.8,2273.1,226.9z M2091.6,181.1h64.3c57,0,57,38.2,57,45.7c0,7.9,0,44.8-57,44.8h-64.3L2091.6,181.1z"/>
<polygon points="533,299.1 643.5,299.1 643.5,238.9 533,238.9 533,181.2 703.2,181.2 703.2,120.6 472.8,120.6 472.8,417.4 
	703.7,417.4 703.7,357.3 533,357.3 "/>
<polygon points="1144.3,299.1 1254.8,299.1 1254.8,238.9 1144.3,238.9 1144.3,181.2 1314.5,181.2 1314.5,120.6 1084.1,120.6 
	1084.1,417.4 1315,417.4 1315,357.3 1144.3,357.3 "/>
</svg>
